{"title":"Deadpool.2016.HD-TS.720p.x264.AC3-Garmin","uid":13889154,"size":1863919480,"categoryP":"video","categoryS":"movies","magnet":"?xt=urn:btih:03f5a86d01941c4f25c857a04e19a19a939873c5&amp;dn=Deadpool.2016.HD-TS.720p.x264.AC3-Garmin&amp;tr=udp%3A%2F%2Ftracker.leechers-paradise.org%3A6969&amp;tr=udp%3A%2F%2Fzer0day.ch%3A1337&amp;tr=udp%3A%2F%2Fopen.demonii.com%3A1337&amp;tr=udp%3A%2F%2Ftracker.coppersurfer.tk%3A6969&amp;tr=udp%3A%2F%2Fexodus.desync.com%3A6969","seeders":12,"leechers":3,"uploader":"Supernova","files":4,"time":1458207387,"description":"http://boltimg.com/image/SWmA\r\n\r\nComplete name                            : Deadpool.2016.HD-TS.720p.x264.mkv\r\nFormat                                   : Matroska\r\nFormat version                           : Version 4 / Version 2\r\nFile size                                : 1.64 GiB\r\nDuration                                 : 1h 43mn\r\nOverall bit rate                         : 2 265 Kbps\r\n\r\nVideo\r\nID                                       : 1\r\nFormat                                   : AVC\r\nFormat/Info                              : Advanced Video Codec\r\nFormat profile                           :   \r\nFormat settings, CABAC                   : Yes\r\nFormat settings, ReFrames                : 4 frames\r\nCodec ID                                 : V_MPEG4/ISO/AVC\r\nDuration                                 : 1h 43mn\r\nBit rate                                 : 1 964 Kbps\r\nWidth                                    : 1 280 pixels\r\nHeight                                   : 558 pixels\r\nDisplay aspect ratio                     : 2.25:1\r\nFrame rate mode                          : Constant\r\nFrame rate                               : 23.976 fps\r\nColor space                              : YUV\r\nChroma subsampling                       : 4:2:0\r\nBit depth                                : 8 bits\r\nScan type                                : Progressive\r\nBits/(Pixel*Frame)                       : 0.115\r\nStream size                              : 1.42 GiB (87%)\r\nWriting library                          : x264 core 148 r2638 7599210\r\nEncoding settings                        : cabac=1 / ref=5 / deblock=1:-3:-3 / analyse=0x3:0x133 / me=hex / subme=10 / psy=1 / psy_rd=1.00:0.80 \r\n/ mixed_ref=1 / me_range=16 / chroma_me=1 / trellis=2 / 8x8dct=1 / cqm=0 / deadzone=21,11 / fast_pskip=1 / chroma_qp_offset=-4 / threads=2 / \r\nlookahead_threads=1 / sliced_threads=0 / nr=0 / decimate=1 / interlaced=0 / bluray_compat=0 / constrained_intra=0 / bframes=3 / b_pyramid=1 / \r\nb_adapt=2 / b_bias=0 / direct=1 / weightb=1 / open_gop=0 / weightp=2 / keyint=240 / keyint_min=23 / scenecut=50 / intra_refresh=0 / \r\nrc_lookahead=50 / rc=crf / mbtree=1 / crf=21.5 / qcomp=0.60 / qpmin=0 / qpmax=69 / qpstep=4 / vbv_maxrate=30000 / vbv_bufsize=38000 / \r\ncrf_max=0.0 / nal_hrd=none / filler=0 / ip_ratio=1.40 / aq=1:1.50\r\n\r\nLanguage                                 : English\r\nDefault                                  : Yes\r\nForced                                   : Yes\r\n\r\nAudio\r\nID                                       : 2\r\nFormat                                   : AC-3\r\nFormat/Info                              : Audio Coding 3\r\nMode extension                           : CM (complete main)\r\nFormat settings, Endianness              : Big\r\nCodec ID                                 : A_AC3\r\nDuration                                 : 1h 43mn\r\nBit rate mode                            : Constant\r\nBit rate                                 : 256 Kbps\r\nChannel(s)                               : 2 channels\r\nChannel positions                        : Front: L R\r\nSampling rate                            : 48.0 KHz\r\nCompression mode                         : Lossy\r\nStream size                              : 190 MiB (11%)\r\nLanguage                                 : English\r\nDefault                                  : Yes\r\nForced                                   : Yes\r\n\r\nSource Video                             : Deadpool.2016.HD-TS.XVID.AC3.HQ.Hive-CM8\r\nSource Audio                             : Deadpool.2016.HD-TS.XVID.AC3.HQ.Hive-CM8\r\nGenre                                    : Action, Adventure, Comedy\r\nRelease Date                             : 12 February 2016\r\nSample Included                          : Yes\r\nImdb                                     : http://www.imdb.com/title/tt1431045/\r\n\r\nOk first thing first. We decided to make an upscaled version of Deadpool from Hive-CM8\r\nVideo. We would appreciate it if you are not going to download the sample to view the \r\nquality, dont make stupid statements just because it upscaled and you think you are\r\nan authority in video encoding or video for that matter. If you didnt download sample\r\nthen dont comment. On to what we did we adjusted everything in it red, blue, bright spots\r\nsaturation and everything else you can think of. And then we upscaled it to a 720p.\r\nAnd we think if you download sample you wont be dissapointed it came out sweet.\r\nSample is from the high action scene at the begining. Big thanks to Hive-CM8 for\r\ntheir release. Hope you all enjoy. And as always download sample as screens \r\nalways look better. \r\n\r\nSCREENS\r\n \nhttp://boltimg.com/image/Sy5k \nhttp://boltimg.com/image/Sd6m \nhttp://boltimg.com/image/SmMI \nhttp://boltimg.com/image/S1l5 \nhttp://boltimg.com/image/S7hW \nhttp://boltimg.com/image/SnCx \nhttp://boltimg.com/image/SsFX","torrent":{"xt":"urn:btih:03f5a86d01941c4f25c857a04e19a19a939873c5","amp;dn":"Deadpool.2016.HD-TS.720p.x264.AC3-Garmin","amp;tr":["udp%3A%2F%2Ftracker.leechers-paradise.org%3A6969","udp%3A%2F%2Fzer0day.ch%3A1337","udp%3A%2F%2Fopen.demonii.com%3A1337","udp%3A%2F%2Ftracker.coppersurfer.tk%3A6969","udp%3A%2F%2Fexodus.desync.com%3A6969"],"infoHash":"03f5a86d01941c4f25c857a04e19a19a939873c5","infoHashBuffer":{"type":"Buffer","data":[3,245,168,109,1,148,28,79,37,200,87,160,78,25,161,154,147,152,115,197]},"announce":[],"urlList":[]}}